<svg xmlns="http://www.w3.org/2000/svg" width="163" height="177" fill="none" viewBox="0 0 163 177">
    <g fill="#ffcf2d" clip-path="url(#a)" opacity=".8">
        <path d="M66.2 19a2 2 0 0 1-2.7-.8 2 2 0 0 1 .7-2.8 2 2 0 0 1 2.8.8 2 2 0 0 1-.8 2.8M75 34a2 2 0 0 1-2.8-.7 2 2 0 0 1 .7-2.8 2 2 0 0 1 2.8.7c.5 1 .2 2.3-.8 2.8M83.6 49a2 2 0 0 1-2.8-.7 2 2 0 0 1 .7-2.8 2 2 0 0 1 2.8.7 2 2 0 0 1-.7 2.8M92.3 64a2 2 0 0 1-2.8-.7 2 2 0 0 1 .7-2.8 2 2 0 0 1 2.8.8 2 2 0 0 1-.7 2.8M101 79.1a2 2 0 0 1-2.8-.7 2 2 0 0 1 .7-2.8 2 2 0 0 1 2.8.7c.6 1 .2 2.3-.7 2.8M109.7 94.2a2 2 0 0 1-2.8-.8 2 2 0 0 1 .7-2.8 2 2 0 0 1 2.8.8 2 2 0 0 1-.7 2.8M118.3 109.2a2 2 0 0 1-2.8-.8 2 2 0 0 1 .8-2.8 2 2 0 0 1 2.8.8 2 2 0 0 1-.8 2.8M127 124.2a2 2 0 0 1-2.8-.7 2 2 0 0 1 .8-2.8 2 2 0 0 1 2.8.7 2 2 0 0 1-.8 2.8M135.7 139.3a2 2 0 0 1-2.8-.8 2 2 0 0 1 .8-2.8 2 2 0 0 1 2.8.8q.6 1.7-.8 2.8M53.7 26.2a2 2 0 0 1-2.8-.8 2 2 0 0 1 .8-2.7 2 2 0 0 1 2.8.7 2 2 0 0 1-.8 2.8M62.4 41.3a2 2 0 0 1-2.8-.8 2 2 0 0 1 .8-2.8 2 2 0 0 1 2.8.8 2 2 0 0 1-.8 2.8M71 56.2a2 2 0 0 1-2.7-.7 2 2 0 0 1 .7-2.8 2 2 0 0 1 2.8.7 2 2 0 0 1-.7 2.8M79.8 71.3a2 2 0 0 1-2.8-.8 2 2 0 0 1 .7-2.7 2 2 0 0 1 2.8.7 2 2 0 0 1-.7 2.8M88.5 86.3a2 2 0 0 1-2.8-.7 2 2 0 0 1 .7-2.8 2 2 0 0 1 2.8.8 2 2 0 0 1-.7 2.7M97.2 101.4a2 2 0 0 1-2.8-.7 2 2 0 0 1 .7-2.8 2 2 0 0 1 2.8.7 2 2 0 0 1-.7 2.8M105.8 116.4a2 2 0 0 1-2.8-.8 2 2 0 0 1 .8-2.8 2 2 0 0 1 2.7.8 2 2 0 0 1-.7 2.8M114.5 131.4a2 2 0 0 1-2.8-.7 2 2 0 0 1 .8-2.8 2 2 0 0 1 2.7.8 2 2 0 0 1-.7 2.7M123.2 146.5a2 2 0 0 1-2.8-.7 2 2 0 0 1 .7-2.8 2 2 0 0 1 2.8.7 2 2 0 0 1-.7 2.8M91.2 4.6a2 2 0 0 1-2.8-.8 2 2 0 0 1 .8-2.8 2 2 0 0 1 2.8.8 2 2 0 0 1-.8 2.8M99.9 19.6a2 2 0 0 1-2.8-.7A2 2 0 0 1 98 16a2 2 0 0 1 2.7.7 2 2 0 0 1-.7 2.8M108.5 34.6a2 2 0 0 1-2.7-.8 2 2 0 0 1 .7-2.7 2 2 0 0 1 2.8.7 2 2 0 0 1-.8 2.8M117.2 49.6a2 2 0 0 1-2.7-.7 2 2 0 0 1 .7-2.8 2 2 0 0 1 2.8.8 2 2 0 0 1-.8 2.7M126 64.7a2 2 0 0 1-2.8-.7 2 2 0 0 1 .7-2.8 2 2 0 0 1 2.8.7 2 2 0 0 1-.8 2.8M134.6 79.8a2 2 0 0 1-2.8-.8 2 2 0 0 1 .8-2.8 2 2 0 0 1 2.8.8 2 2 0 0 1-.8 2.8M143.3 94.7a2 2 0 0 1-2.8-.7 2 2 0 0 1 .7-2.8 2 2 0 0 1 2.8.8 2 2 0 0 1-.7 2.7M152 109.8a2 2 0 0 1-2.8-.7 2 2 0 0 1 .7-2.8 2 2 0 0 1 2.8.7 2 2 0 0 1-.7 2.8M160.7 124.9a2 2 0 0 1-2.8-.8 2 2 0 0 1 .7-2.8 2 2 0 0 1 2.8.8 2 2 0 0 1-.7 2.8M78.7 11.8a2 2 0 0 1-2.8-.8 2 2 0 0 1 .7-2.8 2 2 0 0 1 2.8.8 2 2 0 0 1-.7 2.8M87.4 26.8a2 2 0 0 1-2.8-.7 2 2 0 0 1 .7-2.8 2 2 0 0 1 2.8.8 2 2 0 0 1-.7 2.7M96 41.8a2 2 0 0 1-2.8-.7 2 2 0 0 1 .8-2.8 2 2 0 0 1 2.8.7 2 2 0 0 1-.8 2.8M104.7 56.9a2 2 0 0 1-2.8-.8 2 2 0 0 1 .8-2.8 2 2 0 0 1 2.8.8 2 2 0 0 1-.8 2.8M113.4 72a2 2 0 0 1-2.8-.8 2 2 0 0 1 .8-2.8 2 2 0 0 1 2.8.8 2 2 0 0 1-.8 2.7M122.1 87a2 2 0 0 1-2.8-.8 2 2 0 0 1 .8-2.7 2 2 0 0 1 2.8.7 2 2 0 0 1-.8 2.8M130.8 102a2 2 0 0 1-2.8-.8 2 2 0 0 1 .7-2.8 2 2 0 0 1 2.8.8 2 2 0 0 1-.7 2.8M139.5 117a2 2 0 0 1-2.8-.7 2 2 0 0 1 .7-2.8 2 2 0 0 1 2.8.7 2 2 0 0 1-.7 2.8M148.1 132a2 2 0 0 1-2.7-.7 2 2 0 0 1 .7-2.7 2 2 0 0 1 2.8.7 2 2 0 0 1-.8 2.8M41.3 33.4a2 2 0 0 1-2.8-.8 2 2 0 0 1 .7-2.8 2 2 0 0 1 2.8.8 2 2 0 0 1-.7 2.8M50 48.4a2 2 0 0 1-2.8-.7 2 2 0 0 1 .7-2.8 2 2 0 0 1 2.8.7c.6 1 .2 2.3-.7 2.8M58.6 63.4a2 2 0 0 1-2.8-.7 2 2 0 0 1 .8-2.8 2 2 0 0 1 2.8.7 2 2 0 0 1-.8 2.8M67.3 78.5a2 2 0 0 1-2.8-.8 2 2 0 0 1 .8-2.8 2 2 0 0 1 2.8.8 2 2 0 0 1-.8 2.8M76 93.5a2 2 0 0 1-2.8-.7A2 2 0 0 1 74 90a2 2 0 0 1 2.8.7c.5 1 .1 2.3-.8 2.8M84.7 108.6a2 2 0 0 1-2.8-.8 2 2 0 0 1 .8-2.7 2 2 0 0 1 2.8.7 2 2 0 0 1-.8 2.8M93.4 123.6a2 2 0 0 1-2.8-.8 2 2 0 0 1 .7-2.8 2 2 0 0 1 2.8.8 2 2 0 0 1-.7 2.8M102 138.6a2 2 0 0 1-2.7-.7 2 2 0 0 1 .7-2.8 2 2 0 0 1 2.8.7 2 2 0 0 1-.7 2.8M110.7 153.7a2 2 0 0 1-2.7-.8 2 2 0 0 1 .7-2.8 2 2 0 0 1 2.8.8q.7 1.7-.8 2.8M28.8 40.6a2 2 0 0 1-2.8-.7 2 2 0 0 1 .7-2.8 2 2 0 0 1 2.8.7 2 2 0 0 1-.7 2.8M37.5 55.7a2 2 0 0 1-2.8-.8 2 2 0 0 1 .7-2.8 2 2 0 0 1 2.8.8 2 2 0 0 1-.7 2.8M46.1 70.6a2 2 0 0 1-2.8-.7 2 2 0 0 1 .8-2.8 2 2 0 0 1 2.8.8 2 2 0 0 1-.8 2.7M52 85a2 2 0 1 0 3.5-2 2 2 0 0 0-3.5 2M63.5 100.8a2 2 0 0 1-2.8-.8 2 2 0 0 1 .8-2.8 2 2 0 0 1 2.7.8 2 2 0 0 1-.7 2.8M72.2 115.8a2 2 0 0 1-2.8-.7 2 2 0 0 1 .7-2.8 2 2 0 0 1 2.8.7 2 2 0 0 1-.7 2.8M80.8 130.8a2 2 0 0 1-2.7-.8 2 2 0 0 1 .7-2.7 2 2 0 0 1 2.8.7 2 2 0 0 1-.8 2.8M86.7 145.1a2 2 0 1 0 3.6-2 2 2 0 0 0-3.6 2M98.2 161a2 2 0 0 1-2.8-.8 2 2 0 0 1 .8-2.8 2 2 0 0 1 2.8.7 2 2 0 0 1-.8 2.8M16.2 47.8a2 2 0 0 1-2.7-.7 2 2 0 0 1 .7-2.8 2 2 0 0 1 2.8.7 2 2 0 0 1-.8 2.8M25 62.9a2 2 0 0 1-2.8-.8 2 2 0 0 1 .7-2.7 2 2 0 0 1 2.8.7 2 2 0 0 1-.8 2.8M33.6 77.9a2 2 0 0 1-2.8-.8 2 2 0 0 1 .7-2.8 2 2 0 0 1 2.8.8 2 2 0 0 1-.7 2.8M42.3 93a2 2 0 0 1-2.8-.8 2 2 0 0 1 .7-2.8 2 2 0 0 1 2.8.7 2 2 0 0 1-.7 2.8M51 108a2 2 0 0 1-2.8-.8 2 2 0 0 1 .7-2.7 2 2 0 0 1 2.8.7 2 2 0 0 1-.7 2.8M59.7 123a2 2 0 0 1-2.8-.7 2 2 0 0 1 .7-2.8 2 2 0 0 1 2.8.8 2 2 0 0 1-.7 2.7M68.3 138a2 2 0 0 1-2.8-.7 2 2 0 0 1 .8-2.8 2 2 0 0 1 2.8.7 2 2 0 0 1-.8 2.8M77 153a2 2 0 0 1-2.8-.7 2 2 0 0 1 .8-2.8 2 2 0 0 1 2.8.8 2 2 0 0 1-.8 2.8M85.7 168.1a2 2 0 0 1-2.8-.7 2 2 0 0 1 .8-2.8 2 2 0 0 1 2.7.8 2 2 0 0 1-.7 2.7M3.8 55a2 2 0 0 1-2.8-.7 2 2 0 0 1 .8-2.8 2 2 0 0 1 2.7.7 2 2 0 0 1-.7 2.8M12.5 70a2 2 0 0 1-2.8-.7 2 2 0 0 1 .8-2.8 2 2 0 0 1 2.7.8c.6 1 .2 2.2-.7 2.8M21.1 85a2 2 0 0 1-2.7-.7 2 2 0 0 1 .7-2.8 2 2 0 0 1 2.8.8A2 2 0 0 1 21 85M29.8 100.1a2 2 0 0 1-2.7-.7 2 2 0 0 1 .7-2.8 2 2 0 0 1 2.8.7 2 2 0 0 1-.8 2.8M38.5 115.2a2 2 0 0 1-2.8-.8 2 2 0 0 1 .8-2.8 2 2 0 0 1 2.8.8c.5 1 .2 2.2-.8 2.8M47.2 130.2a2 2 0 0 1-2.8-.7 2 2 0 0 1 .8-2.8 2 2 0 0 1 2.8.7 2 2 0 0 1-.8 2.8M55.9 145.2a2 2 0 0 1-2.8-.7 2 2 0 0 1 .7-2.8 2 2 0 0 1 2.8.7 2 2 0 0 1-.7 2.8M64.6 160.3a2 2 0 0 1-2.8-.8 2 2 0 0 1 .7-2.8 2 2 0 0 1 2.8.8 2 2 0 0 1-.7 2.8M73.3 175.3a2 2 0 0 1-2.8-.7 2 2 0 0 1 .7-2.8 2 2 0 0 1 2.8.7c.5 1 .2 2.3-.7 2.8"/>
    </g>
    <defs>
        <clipPath id="a">
            <path fill="#fff" d="m91 0 71.4 123.8-90.9 52.5L0 52.5z"/>
        </clipPath>
    </defs>
</svg>